<svg width="120" height="40" fill="none" xmlns="http://www.w3.org/2000/svg"><path d="M20.33 35.595c-8.951 0-16.238-7.286-16.238-16.242 0-8.956 7.287-16.238 16.238-16.238 8.956 0 16.238 7.286 16.238 16.238 0 8.951-7.282 16.242-16.238 16.242Zm0-31.176c-8.234 0-14.933 6.7-14.933 14.934 0 8.234 6.699 14.933 14.933 14.933s14.934-6.7 14.934-14.933c0-8.234-6.695-14.934-14.934-14.934Z" fill="url(#a)"/><path d="M20.33 29.248 9.866 18.783 20.33 8.32l10.465 10.464L20.33 29.248Zm-8.62-10.465 8.62 8.621 8.621-8.62-8.62-8.622-8.622 8.621Z" fill="url(#b)"/><path d="m20.33 24.509-5.725-5.726 5.725-5.725 5.726 5.725-5.726 5.726Zm-3.882-5.726 3.882 3.883 3.882-3.883-3.882-3.882-3.882 3.882Z" fill="url(#c)"/><path d="M45.376 13.918c.982 0 1.865.14 2.648.422.782.283 1.447.678 2 1.191.547.513.969 1.144 1.26 1.887.291.744.44 1.578.44 2.504 0 .926-.144 1.757-.44 2.496a5.027 5.027 0 0 1-1.26 1.87c-.549.508-1.214.9-2 1.173-.787.274-1.666.413-2.648.413h-3.722V13.919h3.722Zm0 10.665c1.565 0 2.752-.413 3.552-1.235.8-.822 1.2-1.965 1.2-3.43 0-.73-.1-1.391-.3-1.974-.2-.582-.5-1.082-.9-1.491a3.893 3.893 0 0 0-1.491-.943c-.596-.218-1.283-.326-2.057-.326h-2.16v9.399h2.156ZM60.214 15.188h-4.87v3.995h4.357v1.287h-4.356v4.117h4.869v1.287h-6.43V13.901h6.43v1.287ZM62.579 13.918h6.756v1.27H64.14v4.03h4.221v1.27H64.14v5.386h-1.561V13.919ZM71.222 13.918h1.56v11.956h-1.56V13.919ZM83.208 22.613a3.2 3.2 0 0 1-.257 1.244 3.14 3.14 0 0 1-.765 1.082c-.34.313-.752.57-1.243.765-.492.196-1.066.292-1.713.292a5.39 5.39 0 0 1-1.657-.24 4.08 4.08 0 0 1-1.295-.678 3.105 3.105 0 0 1-.857-1.047 3.143 3.143 0 0 1-.326-1.348h1.665c.022.252.087.496.196.73.109.235.26.448.456.635s.444.34.748.457c.305.113.661.17 1.074.17.757 0 1.343-.188 1.765-.566.422-.378.635-.852.635-1.422 0-.4-.091-.73-.274-.986a2.059 2.059 0 0 0-.73-.627 5.178 5.178 0 0 0-1.04-.404l-1.19-.335a15.214 15.214 0 0 1-1.192-.387 3.82 3.82 0 0 1-1.039-.573 2.639 2.639 0 0 1-.73-.91c-.183-.364-.274-.83-.274-1.39 0-.491.095-.94.282-1.348.187-.404.457-.756.805-1.048a3.765 3.765 0 0 1 1.252-.678 5.142 5.142 0 0 1 1.621-.239 5.07 5.07 0 0 1 1.552.222c.466.148.865.356 1.209.626.343.27.617.591.822.97.204.377.33.795.378 1.251h-1.717a1.633 1.633 0 0 0-.196-.608 1.92 1.92 0 0 0-.457-.548 2.526 2.526 0 0 0-.704-.413 2.604 2.604 0 0 0-.96-.161 2.75 2.75 0 0 0-.9.104c-.279.079-.522.2-.73.361-.205.161-.37.361-.488.609-.121.248-.178.53-.178.848 0 .387.091.704.274.943.182.24.426.443.73.609.304.165.648.304 1.04.413.386.108.782.221 1.182.334.4.113.795.248 1.182.396.387.148.735.348 1.04.591.304.248.547.557.73.926.182.37.274.826.274 1.378ZM96.928 19.888c0 .89-.156 1.712-.465 2.46a5.932 5.932 0 0 1-1.27 1.94 5.628 5.628 0 0 1-1.904 1.26 6.257 6.257 0 0 1-2.365.448c-.843 0-1.63-.148-2.356-.448a5.713 5.713 0 0 1-1.904-1.26 5.84 5.84 0 0 1-1.278-1.94 6.393 6.393 0 0 1-.465-2.46c0-.892.156-1.713.465-2.461a5.885 5.885 0 0 1 1.278-1.94 5.713 5.713 0 0 1 1.904-1.26 6.196 6.196 0 0 1 2.356-.448c.844 0 1.635.148 2.365.448.73.296 1.365.717 1.905 1.26.539.544.96 1.192 1.27 1.94.312.748.464 1.565.464 2.46Zm-10.408 0c0 .73.113 1.39.335 1.973.222.583.53 1.083.926 1.491.396.41.861.73 1.396.953.539.221 1.121.334 1.747.334.626 0 1.213-.113 1.748-.334a3.986 3.986 0 0 0 1.396-.953c.39-.413.704-.908.926-1.49.221-.583.334-1.24.334-1.974 0-.73-.113-1.392-.334-1.983a4.33 4.33 0 0 0-.926-1.5 3.987 3.987 0 0 0-1.396-.943 4.631 4.631 0 0 0-1.748-.326c-.626 0-1.213.109-1.747.326-.54.217-1.005.53-1.396.943a4.436 4.436 0 0 0-.926 1.5c-.226.587-.335 1.248-.335 1.983ZM98.989 13.918h6.756v1.27h-5.195v4.03h4.221v1.27h-4.221v5.386h-1.561V13.919ZM106.893 13.918h8.095v1.27h-3.261v10.686h-1.556V15.188h-3.278v-1.27Z" fill="#000"/><defs><linearGradient id="a" x1="20.332" y1="35.594" x2="20.332" y2="3.115" gradientUnits="userSpaceOnUse"><stop stop-color="#CC7822"/><stop offset=".497" stop-color="#FEE19C"/><stop offset="1" stop-color="#D88E42"/></linearGradient><linearGradient id="b" x1="20.332" y1="29.247" x2="20.332" y2="8.316" gradientUnits="userSpaceOnUse"><stop stop-color="#D19435"/><stop offset=".13" stop-color="#E3AF54"/><stop offset=".272" stop-color="#F2C66E"/><stop offset=".399" stop-color="#FBD47E"/><stop offset=".497" stop-color="#FED984"/><stop offset=".596" stop-color="#FCD67F"/><stop offset=".715" stop-color="#F5CB70"/><stop offset=".845" stop-color="#EABB58"/><stop offset=".981" stop-color="#DBA436"/><stop offset="1" stop-color="#D9A031"/></linearGradient><linearGradient id="c" x1="20.332" y1="24.509" x2="20.332" y2="13.055" gradientUnits="userSpaceOnUse"><stop stop-color="#F9CE57"/><stop offset=".145" stop-color="#F9D167"/><stop offset=".343" stop-color="#F9D377"/><stop offset=".497" stop-color="#F9D47D"/><stop offset=".596" stop-color="#F7D078"/><stop offset=".715" stop-color="#F0C669"/><stop offset=".845" stop-color="#E4B551"/><stop offset=".981" stop-color="#D59E2F"/><stop offset="1" stop-color="#D29A2A"/></linearGradient></defs></svg>