<svg width="139" height="40" fill="none" xmlns="http://www.w3.org/2000/svg"><path d="M20.535 36c-8.825 0-16-7.18-16-16s7.18-16 16-16c8.824 0 16 7.18 16 16s-7.18 16-16 16Zm0-30.72C12.42 5.28 5.82 11.883 5.82 19.997c0 8.113 6.601 14.715 14.715 14.715 8.113 0 14.714-6.602 14.714-14.715 0-8.114-6.6-14.715-14.714-14.715Z" fill="url(#a)"/><path d="M20.535 29.746 10.223 19.435 20.535 9.123l10.31 10.312-10.31 10.31ZM12.04 19.435l8.495 8.494 8.494-8.494-8.494-8.495-8.495 8.495Z" fill="url(#b)"/><path d="m20.535 25.076-5.642-5.642 5.642-5.641 5.641 5.642-5.641 5.641Zm-3.826-5.642 3.826 3.826 3.825-3.826-3.825-3.825-3.826 3.825Z" fill="url(#c)"/><path d="M42.809 19.899V14.47h-1.35v12.026h1.35v-5.361l5.007 5.336.023.025H49.623l-.127-.135-5.552-5.887 5.5-5.87.127-.134h-1.732l-.024.026-5.006 5.402ZM56.57 14.737c-.511-.175-1.12-.266-1.816-.266h-3.657v12.026h1.35v-4.956h2.064l2.915 4.917.024.04H59.064l-.074-.122-2.995-4.944c.457-.093.86-.238 1.21-.437.376-.21.689-.474.931-.783.246-.307.426-.65.55-1.027.122-.377.183-.775.183-1.19a3.81 3.81 0 0 0-.25-1.387 3.021 3.021 0 0 0-.765-1.126 3.608 3.608 0 0 0-1.283-.745Zm.29 1.537c.42.423.632.997.632 1.726 0 .705-.22 1.28-.654 1.735-.433.45-1.115.682-2.067.682h-2.315v-4.784h2.298c.997 0 1.691.222 2.106.64ZM60.168 14.471h-.132l.062.117 3.824 7.235v4.678H65.27v-4.678l3.795-7.235.061-.117H67.62l-.021.044-3 6.021-3.017-6.02-.022-.045H60.169ZM71.923 26.497h.08v-5.059h2.315c.696 0 1.305-.086 1.825-.266.518-.174.945-.42 1.276-.737a3.03 3.03 0 0 0 .739-1.109c.162-.42.245-.876.245-1.36 0-.498-.083-.962-.25-1.388a2.884 2.884 0 0 0-.748-1.117c-.335-.318-.766-.563-1.276-.733-.51-.17-1.12-.257-1.816-.257h-3.66v12.026h1.27Zm4.476-6.85c-.41.403-1.096.616-2.086.616h-2.31v-4.63h2.315c.999 0 1.688.21 2.09.607.405.4.614.97.614 1.725 0 .72-.213 1.276-.623 1.682ZM79.458 14.471h-.08v1.145H82.69v10.885h1.346V15.616h3.295v-1.145h-7.873ZM98.206 24.905a6 6 0 0 0 1.255-1.945c.304-.752.455-1.58.455-2.485 0-.891-.151-1.72-.455-2.475a5.8 5.8 0 0 0-1.256-1.946 5.756 5.756 0 0 0-1.885-1.264 6.005 6.005 0 0 0-2.357-.456c-.85 0-1.63.152-2.357.456-.72.304-1.35.725-1.885 1.264A5.824 5.824 0 0 0 88.466 18a6.603 6.603 0 0 0-.456 2.476c0 .904.152 1.732.456 2.484a5.89 5.89 0 0 0 1.255 1.945c.534.544 1.16.965 1.885 1.265a6.08 6.08 0 0 0 2.357.447 6.11 6.11 0 0 0 2.357-.447 5.542 5.542 0 0 0 1.886-1.265Zm-7.501-8.045a4.223 4.223 0 0 1 1.45-.976 4.721 4.721 0 0 1 1.804-.34 4.72 4.72 0 0 1 1.803.34 4.224 4.224 0 0 1 1.451.976c.412.424.732.937.968 1.545.232.607.35 1.295.35 2.07 0 .776-.118 1.464-.35 2.07a4.63 4.63 0 0 1-.968 1.555 4.186 4.186 0 0 1-1.45.984 4.72 4.72 0 0 1-1.804.34 4.721 4.721 0 0 1-1.803-.34 4.186 4.186 0 0 1-1.45-.984 4.63 4.63 0 0 1-.969-1.554c-.231-.607-.35-1.3-.35-2.07 0-.772.118-1.46.35-2.07.237-.61.557-1.126.968-1.546ZM103.199 26.501h.08V20.95h6.274V26.5H110.9v-12.03H109.553v5.333h-6.274v-5.333H101.928v12.03H103.199ZM114.755 14.551v-.08H113.489v.08h-.072v7.454c0 .79.108 1.478.336 2.06a3.9 3.9 0 0 0 .936 1.446c.398.381.867.661 1.405.84a5.48 5.48 0 0 0 1.713.266 5.38 5.38 0 0 0 1.713-.265 3.7 3.7 0 0 0 1.405-.84c.399-.383.714-.869.936-1.448.223-.585.335-1.272.335-2.06v-7.533h-1.346v7.55c0 .607-.077 1.125-.227 1.555-.151.433-.36.782-.62 1.05a2.34 2.34 0 0 1-.945.593h-.001c-.367.13-.782.193-1.237.193-.455 0-.87-.067-1.247-.193a2.471 2.471 0 0 1-.963-.593c-.268-.269-.477-.617-.628-1.05-.15-.43-.227-.948-.227-1.554V14.55ZM130.556 26.249c.488-.17.9-.398 1.23-.688.331-.291.578-.64.749-1.04.172-.4.255-.827.255-1.278 0-.382-.061-.742-.18-1.084v-.002a3.187 3.187 0 0 0-.523-.914 2.952 2.952 0 0 0-1.456-.965c.189-.07.37-.16.544-.265.26-.159.493-.352.696-.586a2.61 2.61 0 0 0 .481-.812c.12-.311.177-.668.177-1.074 0-.426-.079-.826-.229-1.2a2.646 2.646 0 0 0-.702-.98c-.318-.283-.714-.498-1.184-.655-.477-.157-1.03-.235-1.658-.235h-4.072v12.026h4.188c.632 0 1.194-.082 1.684-.248Zm-.023-7.085h-.001c-.408.364-1.011.55-1.814.55h-2.688V15.63h2.636c.852 0 1.471.187 1.875.55.405.364.611.85.611 1.478 0 .65-.207 1.148-.619 1.507Zm-1.794 1.7c.839 0 1.492.21 1.979.62.482.407.726.95.726 1.643 0 .69-.236 1.229-.692 1.618-.465.392-1.113.594-1.961.594h-2.756v-4.475h2.704Z" fill="#020000" stroke="#000" stroke-width=".16"/><defs><linearGradient id="a" x1="20.534" y1="36.001" x2="20.534" y2="3.998" gradientUnits="userSpaceOnUse"><stop stop-color="#CC7822"/><stop offset=".497" stop-color="#FEE19C"/><stop offset="1" stop-color="#D88E42"/></linearGradient><linearGradient id="b" x1="20.532" y1="29.747" x2="20.532" y2="9.123" gradientUnits="userSpaceOnUse"><stop stop-color="#D19435"/><stop offset=".13" stop-color="#E3AF54"/><stop offset=".272" stop-color="#F2C66E"/><stop offset=".399" stop-color="#FBD47E"/><stop offset=".497" stop-color="#FED984"/><stop offset=".596" stop-color="#FCD67F"/><stop offset=".715" stop-color="#F5CB70"/><stop offset=".845" stop-color="#EABB58"/><stop offset=".981" stop-color="#DBA436"/><stop offset="1" stop-color="#D9A031"/></linearGradient><linearGradient id="c" x1="20.534" y1="25.078" x2="20.534" y2="13.792" gradientUnits="userSpaceOnUse"><stop stop-color="#F9CE57"/><stop offset=".145" stop-color="#F9D167"/><stop offset=".343" stop-color="#F9D377"/><stop offset=".497" stop-color="#F9D47D"/><stop offset=".596" stop-color="#F7D078"/><stop offset=".715" stop-color="#F0C669"/><stop offset=".845" stop-color="#E4B551"/><stop offset=".981" stop-color="#D59E2F"/><stop offset="1" stop-color="#D29A2A"/></linearGradient></defs></svg>